<?xml version="1.0" encoding="UTF-8"?>
<svg xmlns="http://www.w3.org/2000/svg" xmlns:xlink="http://www.w3.org/1999/xlink" width="841.92004" height="595.32001" viewBox="0 0 841.92004 595.32001">
<defs>
<clipPath id="clip-0">
<path clip-rule="nonzero" d="M 0.441406 0 L 841.398438 0 L 841.398438 594.640625 L 0.441406 594.640625 Z M 0.441406 0 "/>
</clipPath>
</defs>
<g clip-path="url(#clip-0)">
<path fill-rule="nonzero" fill="rgba(100%, 100%, 100%, 0)" fill-opacity="1" d="M 0.441406 0 L 841.398438 0 L 841.398438 594.640625 L 0.441406 594.640625 Z M 0.441406 0 "/>
<path fill-rule="nonzero" fill="rgba(100%, 100%, 100%, 0)" fill-opacity="1" d="M 0.441406 0 L 1682.359375 0 L 1682.359375 1189.28125 L 0.441406 1189.28125 Z M 0.441406 0 "/>
</g>
<path fill="none" stroke-width="1.12" stroke-linecap="round" stroke-linejoin="round" stroke="rgb(0%, 0%, 0%)" stroke-opacity="1" stroke-miterlimit="10" d="M 603.518103 426.397941 L 599.842034 426.397941 L 602.240604 432.159724 " transform="matrix(0.749144, 0, 0, 0.749144, 0.440349, 0.00000299658)"/>
<path fill="none" stroke-width="1.12" stroke-linecap="round" stroke-linejoin="round" stroke="rgb(0%, 0%, 0%)" stroke-opacity="1" stroke-miterlimit="10" d="M 598.397678 426.397941 L 596.640464 432.159724 L 594.721608 426.397941 " transform="matrix(0.749144, 0, 0, 0.749144, 0.440349, 0.00000299658)"/>
<path fill="none" stroke-width="1.12" stroke-linecap="round" stroke-linejoin="round" stroke="rgb(0%, 0%, 0%)" stroke-opacity="1" stroke-miterlimit="10" d="M 593.600538 429.917582 L 593.282466 429.761154 L 592.797538 429.437868 L 591.681682 429.917582 L 591.201968 429.761154 L 590.878682 429.437868 " transform="matrix(0.749144, 0, 0, 0.749144, 0.440349, 0.00000299658)"/>
<path fill="none" stroke-width="1.12" stroke-linecap="round" stroke-linejoin="round" stroke="rgb(0%, 0%, 0%)" stroke-opacity="1" stroke-miterlimit="10" d="M -0.00213141 -0.00205252 L -3.521772 -0.00205252 L -1.597702 2.240089 L -2.400701 2.240089 L -3.042058 2.55816 L -3.198487 2.719803 L -3.521772 3.36116 L -3.521772 4.638659 L -3.198487 5.118373 L -3.042058 5.441658 L -2.400701 5.75973 L -0.799917 5.75973 L -0.320203 5.441658 L -0.00213141 5.118373 " transform="matrix(0.749144, 0, 0, 0.749144, 441.896128, 319.435131)"/>
<path fill="none" stroke-width="1.12" stroke-linecap="round" stroke-linejoin="round" stroke="rgb(0%, 0%, 0%)" stroke-opacity="1" stroke-miterlimit="10" d="M -0.00218339 -0.00205252 L 2.719672 -0.00205252 L 3.037743 2.719803 L 2.078315 2.240089 L 0.800816 2.240089 L 0.321102 2.55816 L -0.00218339 2.719803 L -0.320255 3.36116 L -0.320255 4.638659 L -0.00218339 5.118373 L 0.321102 5.441658 L 0.800816 5.75973 L 2.078315 5.75973 L 2.719672 5.441658 L 3.037743 5.118373 " transform="matrix(0.749144, 0, 0, 0.749144, 435.423511, 319.435131)"/>
<path fill="none" stroke-width="1.12" stroke-linecap="round" stroke-linejoin="round" stroke="rgb(0%, 0%, 0%)" stroke-opacity="1" stroke-miterlimit="10" d="M 578.718976 426.397941 L 576.80012 432.159724 L 575.037692 426.397941 " transform="matrix(0.749144, 0, 0, 0.749144, 0.440349, 0.00000299658)"/>
<path fill="none" stroke-width="1.12" stroke-linecap="round" stroke-linejoin="round" stroke="rgb(0%, 0%, 0%)" stroke-opacity="1" stroke-miterlimit="10" d="M 569.599196 428.322012 L 567.362269 428.322012 " transform="matrix(0.749144, 0, 0, 0.749144, 0.440349, 0.00000299658)"/>
<path fill="none" stroke-width="1.12" stroke-linecap="round" stroke-linejoin="round" stroke="rgb(0%, 0%, 0%)" stroke-opacity="1" stroke-miterlimit="10" d="M 568.80141 426.397941 L 568.80141 431.361938 L 568.478125 431.841652 L 567.998411 432.159724 L 567.362269 432.159724 " transform="matrix(0.749144, 0, 0, 0.749144, 0.440349, 0.00000299658)"/>
<path fill="none" stroke-width="1.12" stroke-linecap="round" stroke-linejoin="round" stroke="rgb(0%, 0%, 0%)" stroke-opacity="1" stroke-miterlimit="10" d="M 0.000398123 -0.000280439 L 0.641755 -0.318352 L 0.959826 -0.641637 L 1.121469 -1.121351 L 1.121469 -2.722136 L 0.959826 -3.20185 L 0.641755 -3.519921 L 0.000398123 -3.837992 L -0.802601 -3.837992 L -1.282315 -3.519921 L -1.600387 -3.20185 L -1.762029 -2.722136 L -1.762029 -1.121351 L -1.600387 -0.641637 L -1.282315 -0.318352 L -0.802601 -0.000280439 L 0.000398123 -0.000280439 " transform="matrix(0.749144, 0, 0, 0.749144, 423.437202, 323.75021)"/>
<path fill="none" stroke-width="1.12" stroke-linecap="round" stroke-linejoin="round" stroke="rgb(0%, 0%, 0%)" stroke-opacity="1" stroke-miterlimit="10" d="M 0.000132469 -0.00205252 L 2.560345 -0.00205252 L 2.878416 2.719803 L 2.560345 2.55816 L 2.080631 2.240089 L 0.797918 2.240089 L 0.161775 2.55816 L 0.000132469 2.719803 L -0.317939 3.36116 L -0.317939 4.638659 L 0.000132469 5.118373 L 0.161775 5.441658 L 0.797918 5.75973 L 2.080631 5.75973 L 2.560345 5.441658 L 2.878416 5.118373 " transform="matrix(0.749144, 0, 0, 0.749144, 415.046776, 319.435131)"/>
<path fill="none" stroke-width="1.12" stroke-linecap="round" stroke-linejoin="round" stroke="rgb(0%, 0%, 0%)" stroke-opacity="1" stroke-miterlimit="10" d="M 551.521279 426.397941 L 549.602423 432.159724 L 547.678352 426.397941 " transform="matrix(0.749144, 0, 0, 0.749144, 0.440349, 0.00000299658)"/>
<path fill="none" stroke-width="3.36" stroke-linecap="round" stroke-linejoin="round" stroke="rgb(0%, 0%, 0%)" stroke-opacity="1" stroke-miterlimit="10" d="M 558.242489 406.880882 L 545.279782 393.918176 " transform="matrix(0.749144, 0, 0, 0.749144, 0.440349, 0.00000299658)"/>
<path fill="none" stroke-width="3.36" stroke-linecap="round" stroke-linejoin="round" stroke="rgb(0%, 0%, 0%)" stroke-opacity="1" stroke-miterlimit="10" d="M 583.198044 406.880882 L 558.242489 406.880882 " transform="matrix(0.749144, 0, 0, 0.749144, 0.440349, 0.00000299658)"/>
<path fill="none" stroke-width="3.36" stroke-linecap="round" stroke-linejoin="round" stroke="rgb(0%, 0%, 0%)" stroke-opacity="1" stroke-miterlimit="10" d="M 588.959826 401.1191 L 583.198044 406.880882 " transform="matrix(0.749144, 0, 0, 0.749144, 0.440349, 0.00000299658)"/>
<path fill="none" stroke-width="3.36" stroke-linecap="round" stroke-linejoin="round" stroke="rgb(0%, 0%, 0%)" stroke-opacity="1" stroke-miterlimit="10" d="M 594.878037 416.96009 L 600.478176 411.359951 " transform="matrix(0.749144, 0, 0, 0.749144, 0.440349, 0.00000299658)"/>
<path fill="none" stroke-width="3.36" stroke-linecap="round" stroke-linejoin="round" stroke="rgb(0%, 0%, 0%)" stroke-opacity="1" stroke-miterlimit="10" d="M 556.480061 416.96009 L 594.878037 416.96009 " transform="matrix(0.749144, 0, 0, 0.749144, 0.440349, 0.00000299658)"/>
<path fill="none" stroke-width="3.36" stroke-linecap="round" stroke-linejoin="round" stroke="rgb(0%, 0%, 0%)" stroke-opacity="1" stroke-miterlimit="10" d="M 522.717582 355.999914 L 528.641007 350.238132 " transform="matrix(0.749144, 0, 0, 0.749144, 0.440349, 0.00000299658)"/>
<path fill="none" stroke-width="3.36" stroke-linecap="round" stroke-linejoin="round" stroke="rgb(0%, 0%, 0%)" stroke-opacity="1" stroke-miterlimit="10" d="M 524.318367 371.36119 L 532.160648 363.51891 " transform="matrix(0.749144, 0, 0, 0.749144, 0.440349, 0.00000299658)"/>
<path fill="none" stroke-width="3.36" stroke-linecap="round" stroke-linejoin="round" stroke="rgb(0%, 0%, 0%)" stroke-opacity="1" stroke-miterlimit="10" d="M 524.318367 385.757824 L 524.318367 371.36119 " transform="matrix(0.749144, 0, 0, 0.749144, 0.440349, 0.00000299658)"/>
<path fill="none" stroke-width="3.36" stroke-linecap="round" stroke-linejoin="round" stroke="rgb(0%, 0%, 0%)" stroke-opacity="1" stroke-miterlimit="10" d="M 532.160648 363.51891 L 532.160648 355.999914 " transform="matrix(0.749144, 0, 0, 0.749144, 0.440349, 0.00000299658)"/>
<path fill="none" stroke-width="3.36" stroke-linecap="round" stroke-linejoin="round" stroke="rgb(0%, 0%, 0%)" stroke-opacity="1" stroke-miterlimit="10" d="M 516.799372 399.841601 L 516.799372 347.67792 " transform="matrix(0.749144, 0, 0, 0.749144, 0.440349, 0.00000299658)"/>
<path fill="none" stroke-width="3.36" stroke-linecap="round" stroke-linejoin="round" stroke="rgb(0%, 0%, 0%)" stroke-opacity="1" stroke-miterlimit="10" d="M 518.879871 345.597421 L 536.478074 345.597421 " transform="matrix(0.749144, 0, 0, 0.749144, 0.440349, 0.00000299658)"/>
<path fill="none" stroke-width="3.36" stroke-linecap="round" stroke-linejoin="round" stroke="rgb(0%, 0%, 0%)" stroke-opacity="1" stroke-miterlimit="10" d="M 516.799372 347.67792 L 518.879871 345.597421 " transform="matrix(0.749144, 0, 0, 0.749144, 0.440349, 0.00000299658)"/>
<path fill="none" stroke-width="3.36" stroke-linecap="round" stroke-linejoin="round" stroke="rgb(0%, 0%, 0%)" stroke-opacity="1" stroke-miterlimit="10" d="M 528.641007 350.238132 L 534.559218 350.238132 " transform="matrix(0.749144, 0, 0, 0.749144, 0.440349, 0.00000299658)"/>
<path fill="none" stroke-width="3.36" stroke-linecap="round" stroke-linejoin="round" stroke="rgb(0%, 0%, 0%)" stroke-opacity="1" stroke-miterlimit="10" d="M 534.559218 350.238132 L 538.078858 353.601345 " transform="matrix(0.749144, 0, 0, 0.749144, 0.440349, 0.00000299658)"/>
<path fill="none" stroke-width="3.36" stroke-linecap="round" stroke-linejoin="round" stroke="rgb(0%, 0%, 0%)" stroke-opacity="1" stroke-miterlimit="10" d="M 536.478074 345.597421 L 542.557927 351.838917 " transform="matrix(0.749144, 0, 0, 0.749144, 0.440349, 0.00000299658)"/>
<path fill="none" stroke-width="3.36" stroke-linecap="round" stroke-linejoin="round" stroke="rgb(0%, 0%, 0%)" stroke-opacity="1" stroke-miterlimit="10" d="M 542.557927 351.838917 L 542.557927 366.079122 " transform="matrix(0.749144, 0, 0, 0.749144, 0.440349, 0.00000299658)"/>
<path fill="none" stroke-width="3.36" stroke-linecap="round" stroke-linejoin="round" stroke="rgb(0%, 0%, 0%)" stroke-opacity="1" stroke-miterlimit="10" d="M 578.562547 384.960039 L 593.918609 384.960039 " transform="matrix(0.749144, 0, 0, 0.749144, 0.440349, 0.00000299658)"/>
<path fill="none" stroke-width="3.36" stroke-linecap="round" stroke-linejoin="round" stroke="rgb(0%, 0%, 0%)" stroke-opacity="1" stroke-miterlimit="10" d="M 593.918609 384.960039 L 599.842034 379.041828 " transform="matrix(0.749144, 0, 0, 0.749144, 0.440349, 0.00000299658)"/>
<path fill="none" stroke-width="3.36" stroke-linecap="round" stroke-linejoin="round" stroke="rgb(0%, 0%, 0%)" stroke-opacity="1" stroke-miterlimit="10" d="M 562.398272 401.1191 L 578.562547 384.960039 " transform="matrix(0.749144, 0, 0, 0.749144, 0.440349, 0.00000299658)"/>
<path fill="none" stroke-width="3.36" stroke-linecap="round" stroke-linejoin="round" stroke="rgb(0%, 0%, 0%)" stroke-opacity="1" stroke-miterlimit="10" d="M 605.598602 372.158976 L 605.598602 384.318682 " transform="matrix(0.749144, 0, 0, 0.749144, 0.440349, 0.00000299658)"/>
<path fill="none" stroke-width="3.36" stroke-linecap="round" stroke-linejoin="round" stroke="rgb(0%, 0%, 0%)" stroke-opacity="1" stroke-miterlimit="10" d="M 605.598602 384.318682 L 588.959826 401.1191 " transform="matrix(0.749144, 0, 0, 0.749144, 0.440349, 0.00000299658)"/>
<path fill="none" stroke-width="3.36" stroke-linecap="round" stroke-linejoin="round" stroke="rgb(0%, 0%, 0%)" stroke-opacity="1" stroke-miterlimit="10" d="M 590.24254 379.041828 L 590.080897 379.041828 " transform="matrix(0.749144, 0, 0, 0.749144, 0.440349, 0.00000299658)"/>
<path fill="none" stroke-width="3.36" stroke-linecap="round" stroke-linejoin="round" stroke="rgb(0%, 0%, 0%)" stroke-opacity="1" stroke-miterlimit="10" d="M 533.59979 380.960684 L 542.401499 380.960684 " transform="matrix(0.749144, 0, 0, 0.749144, 0.440349, 0.00000299658)"/>
<path fill="none" stroke-width="3.36" stroke-linecap="round" stroke-linejoin="round" stroke="rgb(0%, 0%, 0%)" stroke-opacity="1" stroke-miterlimit="10" d="M 538.078858 376.638044 L 533.59979 380.960684 " transform="matrix(0.749144, 0, 0, 0.749144, 0.440349, 0.00000299658)"/>
<path fill="none" stroke-width="3.36" stroke-linecap="round" stroke-linejoin="round" stroke="rgb(0%, 0%, 0%)" stroke-opacity="1" stroke-miterlimit="10" d="M 533.59979 390.560178 L 536.957788 390.560178 " transform="matrix(0.749144, 0, 0, 0.749144, 0.440349, 0.00000299658)"/>
<path fill="none" stroke-width="3.36" stroke-linecap="round" stroke-linejoin="round" stroke="rgb(0%, 0%, 0%)" stroke-opacity="1" stroke-miterlimit="10" d="M 533.59979 390.560178 L 529.120721 390.560178 " transform="matrix(0.749144, 0, 0, 0.749144, 0.440349, 0.00000299658)"/>
<path fill="none" stroke-width="3.36" stroke-linecap="round" stroke-linejoin="round" stroke="rgb(0%, 0%, 0%)" stroke-opacity="1" stroke-miterlimit="10" d="M 536.957788 390.560178 L 540.159357 393.918176 " transform="matrix(0.749144, 0, 0, 0.749144, 0.440349, 0.00000299658)"/>
<path fill="none" stroke-width="3.36" stroke-linecap="round" stroke-linejoin="round" stroke="rgb(0%, 0%, 0%)" stroke-opacity="1" stroke-miterlimit="10" d="M 529.120721 390.560178 L 524.318367 385.757824 " transform="matrix(0.749144, 0, 0, 0.749144, 0.440349, 0.00000299658)"/>
<path fill="none" stroke-width="3.36" stroke-linecap="round" stroke-linejoin="round" stroke="rgb(0%, 0%, 0%)" stroke-opacity="1" stroke-miterlimit="10" d="M 525.439438 408.481667 L 533.59979 400.159672 " transform="matrix(0.749144, 0, 0, 0.749144, 0.440349, 0.00000299658)"/>
<path fill="none" stroke-width="3.36" stroke-linecap="round" stroke-linejoin="round" stroke="rgb(0%, 0%, 0%)" stroke-opacity="1" stroke-miterlimit="10" d="M 525.439438 408.481667 L 516.799372 399.841601 " transform="matrix(0.749144, 0, 0, 0.749144, 0.440349, 0.00000299658)"/>
<path fill="none" stroke-width="3.36" stroke-linecap="round" stroke-linejoin="round" stroke="rgb(0%, 0%, 0%)" stroke-opacity="1" stroke-miterlimit="10" d="M 596.322393 362.721124 L 605.598602 372.158976 " transform="matrix(0.749144, 0, 0, 0.749144, 0.440349, 0.00000299658)"/>
<path fill="none" stroke-width="3.36" stroke-linecap="round" stroke-linejoin="round" stroke="rgb(0%, 0%, 0%)" stroke-opacity="1" stroke-miterlimit="10" d="M 602.558675 350.561418 L 602.558675 356.479628 " transform="matrix(0.749144, 0, 0, 0.749144, 0.440349, 0.00000299658)"/>
<path fill="none" stroke-width="3.36" stroke-linecap="round" stroke-linejoin="round" stroke="rgb(0%, 0%, 0%)" stroke-opacity="1" stroke-miterlimit="10" d="M 598.882606 346.880134 L 602.558675 350.561418 " transform="matrix(0.749144, 0, 0, 0.749144, 0.440349, 0.00000299658)"/>
<path fill="none" stroke-width="3.36" stroke-linecap="round" stroke-linejoin="round" stroke="rgb(0%, 0%, 0%)" stroke-opacity="1" stroke-miterlimit="10" d="M 602.558675 356.479628 L 596.322393 362.721124 " transform="matrix(0.749144, 0, 0, 0.749144, 0.440349, 0.00000299658)"/>
<path fill="none" stroke-width="3.36" stroke-linecap="round" stroke-linejoin="round" stroke="rgb(0%, 0%, 0%)" stroke-opacity="1" stroke-miterlimit="10" d="M 570.720266 346.880134 L 598.882606 346.880134 " transform="matrix(0.749144, 0, 0, 0.749144, 0.440349, 0.00000299658)"/>
<path fill="none" stroke-width="3.36" stroke-linecap="round" stroke-linejoin="round" stroke="rgb(0%, 0%, 0%)" stroke-opacity="1" stroke-miterlimit="10" d="M 590.080897 354.560772 L 591.520039 353.121631 " transform="matrix(0.749144, 0, 0, 0.749144, 0.440349, 0.00000299658)"/>
<path fill="none" stroke-width="3.36" stroke-linecap="round" stroke-linejoin="round" stroke="rgb(0%, 0%, 0%)" stroke-opacity="1" stroke-miterlimit="10" d="M 590.080897 379.041828 L 590.080897 354.560772 " transform="matrix(0.749144, 0, 0, 0.749144, 0.440349, 0.00000299658)"/>
<path fill="none" stroke-width="3.36" stroke-linecap="round" stroke-linejoin="round" stroke="rgb(0%, 0%, 0%)" stroke-opacity="1" stroke-miterlimit="10" d="M 591.520039 353.121631 L 596.322393 353.121631 " transform="matrix(0.749144, 0, 0, 0.749144, 0.440349, 0.00000299658)"/>
<path fill="none" stroke-width="3.36" stroke-linecap="round" stroke-linejoin="round" stroke="rgb(0%, 0%, 0%)" stroke-opacity="1" stroke-miterlimit="10" d="M 542.401499 380.960684 L 562.398272 401.1191 " transform="matrix(0.749144, 0, 0, 0.749144, 0.440349, 0.00000299658)"/>
<path fill="none" stroke-width="3.36" stroke-linecap="round" stroke-linejoin="round" stroke="rgb(0%, 0%, 0%)" stroke-opacity="1" stroke-miterlimit="10" d="M 540.159357 393.918176 L 540.159357 418.399232 " transform="matrix(0.749144, 0, 0, 0.749144, 0.440349, 0.00000299658)"/>
<path fill="none" stroke-width="3.36" stroke-linecap="round" stroke-linejoin="round" stroke="rgb(0%, 0%, 0%)" stroke-opacity="1" stroke-miterlimit="10" d="M 545.279782 393.918176 L 540.159357 393.918176 " transform="matrix(0.749144, 0, 0, 0.749144, 0.440349, 0.00000299658)"/>
<path fill="none" stroke-width="3.36" stroke-linecap="round" stroke-linejoin="round" stroke="rgb(0%, 0%, 0%)" stroke-opacity="1" stroke-miterlimit="10" d="M 540.159357 418.399232 L 534.882503 423.6813 " transform="matrix(0.749144, 0, 0, 0.749144, 0.440349, 0.00000299658)"/>
<path fill="none" stroke-width="3.36" stroke-linecap="round" stroke-linejoin="round" stroke="rgb(0%, 0%, 0%)" stroke-opacity="1" stroke-miterlimit="10" d="M 525.439438 423.6813 L 525.439438 408.481667 " transform="matrix(0.749144, 0, 0, 0.749144, 0.440349, 0.00000299658)"/>
<path fill="none" stroke-width="3.36" stroke-linecap="round" stroke-linejoin="round" stroke="rgb(0%, 0%, 0%)" stroke-opacity="1" stroke-miterlimit="10" d="M 550.879922 411.359951 L 556.480061 416.96009 " transform="matrix(0.749144, 0, 0, 0.749144, 0.440349, 0.00000299658)"/>
<path fill="none" stroke-width="3.36" stroke-linecap="round" stroke-linejoin="round" stroke="rgb(0%, 0%, 0%)" stroke-opacity="1" stroke-miterlimit="10" d="M 538.078858 353.601345 L 538.078858 376.638044 " transform="matrix(0.749144, 0, 0, 0.749144, 0.440349, 0.00000299658)"/>
<path fill="none" stroke-width="3.36" stroke-linecap="round" stroke-linejoin="round" stroke="rgb(0%, 0%, 0%)" stroke-opacity="1" stroke-miterlimit="10" d="M 552.642349 364.958052 L 570.720266 346.880134 " transform="matrix(0.749144, 0, 0, 0.749144, 0.440349, 0.00000299658)"/>
<path fill="none" stroke-width="3.36" stroke-linecap="round" stroke-linejoin="round" stroke="rgb(0%, 0%, 0%)" stroke-opacity="1" stroke-miterlimit="10" d="M 564.160699 372.800332 L 571.841337 364.958052 " transform="matrix(0.749144, 0, 0, 0.749144, 0.440349, 0.00000299658)"/>
<path fill="none" stroke-width="3.36" stroke-linecap="round" stroke-linejoin="round" stroke="rgb(0%, 0%, 0%)" stroke-opacity="1" stroke-miterlimit="10" d="M 549.279137 372.800332 L 564.160699 372.800332 " transform="matrix(0.749144, 0, 0, 0.749144, 0.440349, 0.00000299658)"/>
<path fill="none" stroke-width="3.36" stroke-linecap="round" stroke-linejoin="round" stroke="rgb(0%, 0%, 0%)" stroke-opacity="1" stroke-miterlimit="10" d="M 542.557927 366.079122 L 549.279137 372.800332 " transform="matrix(0.749144, 0, 0, 0.749144, 0.440349, 0.00000299658)"/>
<path fill-rule="nonzero" fill="rgb(0%, 0%, 0%)" fill-opacity="1" d="M 444.652344 269.210938 L 449.6875 269.210938 L 449.6875 274.367188 L 444.652344 274.367188 Z M 444.652344 269.210938 "/>
<path fill-rule="nonzero" fill="rgb(0%, 0%, 0%)" fill-opacity="1" d="M 449.808594 264.539062 C 449.808594 265.976562 448.609375 267.175781 447.171875 267.175781 C 445.730469 267.175781 444.652344 265.976562 444.652344 264.539062 C 444.652344 263.097656 445.730469 262.019531 447.171875 262.019531 C 448.609375 262.019531 449.808594 263.097656 449.808594 264.539062 Z M 449.808594 264.539062 "/>
<path fill-rule="nonzero" fill="rgb(0%, 0%, 0%)" fill-opacity="1" d="M 436.980469 300.496094 C 436.980469 301.816406 435.902344 302.894531 434.585938 302.894531 C 433.265625 302.894531 432.308594 301.816406 432.308594 300.496094 C 432.308594 299.179688 433.265625 298.21875 434.585938 298.21875 C 435.902344 298.21875 436.980469 299.179688 436.980469 300.496094 Z M 436.980469 300.496094 "/>
<path fill-rule="nonzero" fill="rgb(0%, 0%, 0%)" fill-opacity="1" d="M 444.054688 300.496094 C 444.054688 301.816406 442.976562 302.894531 441.65625 302.894531 C 440.335938 302.894531 439.378906 301.816406 439.378906 300.496094 C 439.378906 299.179688 440.335938 298.21875 441.65625 298.21875 C 442.976562 298.21875 444.054688 299.179688 444.054688 300.496094 Z M 444.054688 300.496094 "/>
<path fill-rule="nonzero" fill="rgb(0%, 0%, 0%)" fill-opacity="1" d="M 454.601562 308.167969 C 454.601562 310.566406 452.683594 312.484375 450.285156 312.484375 C 447.890625 312.484375 446.089844 310.566406 446.089844 308.167969 C 446.089844 305.769531 447.890625 303.972656 450.285156 303.972656 C 452.683594 303.972656 454.601562 305.769531 454.601562 308.167969 Z M 454.601562 308.167969 "/>
<path fill-rule="nonzero" fill="rgb(0%, 0%, 0%)" fill-opacity="1" d="M 452.203125 283.957031 C 452.203125 285.273438 451.125 286.351562 449.808594 286.351562 C 448.488281 286.351562 447.53125 285.273438 447.53125 283.957031 C 447.53125 282.636719 448.488281 281.679688 449.808594 281.679688 C 451.125 281.679688 452.203125 282.636719 452.203125 283.957031 Z M 452.203125 283.957031 "/>
<path fill-rule="nonzero" fill="rgb(0%, 0%, 0%)" fill-opacity="1" d="M 445.011719 283.957031 C 445.011719 285.273438 443.933594 286.351562 442.617188 286.351562 C 441.296875 286.351562 440.335938 285.273438 440.335938 283.957031 C 440.335938 282.636719 441.296875 281.679688 442.617188 281.679688 C 443.933594 281.679688 445.011719 282.636719 445.011719 283.957031 Z M 445.011719 283.957031 "/>
<path fill-rule="nonzero" fill="rgb(0%, 0%, 0%)" fill-opacity="1" d="M 425.835938 270.53125 L 431.828125 270.53125 L 431.828125 276.402344 L 425.835938 276.402344 Z M 425.835938 270.53125 "/>
<path fill="none" stroke-width="1.92" stroke-linecap="round" stroke-linejoin="round" stroke="rgb(0%, 0%, 0%)" stroke-opacity="1" stroke-miterlimit="10" d="M 575.840692 361.12034 L 567.841983 361.12034 " transform="matrix(0.749144, 0, 0, 0.749144, 0.440349, 0.00000299658)"/>
<path fill="none" stroke-width="1.92" stroke-linecap="round" stroke-linejoin="round" stroke="rgb(0%, 0%, 0%)" stroke-opacity="1" stroke-miterlimit="10" d="M 567.841983 361.12034 L 567.841983 368.957406 " transform="matrix(0.749144, 0, 0, 0.749144, 0.440349, 0.00000299658)"/>
<path fill="none" stroke-width="1.92" stroke-linecap="round" stroke-linejoin="round" stroke="rgb(0%, 0%, 0%)" stroke-opacity="1" stroke-miterlimit="10" d="M 567.841983 368.957406 L 575.840692 368.957406 " transform="matrix(0.749144, 0, 0, 0.749144, 0.440349, 0.00000299658)"/>
<path fill="none" stroke-width="1.92" stroke-linecap="round" stroke-linejoin="round" stroke="rgb(0%, 0%, 0%)" stroke-opacity="1" stroke-miterlimit="10" d="M 575.840692 368.957406 L 575.840692 361.12034 " transform="matrix(0.749144, 0, 0, 0.749144, 0.440349, 0.00000299658)"/>
<path fill-rule="nonzero" fill="rgb(0%, 0%, 0%)" fill-opacity="1" d="M 419.480469 298.339844 L 424.035156 298.339844 L 424.035156 302.65625 L 419.480469 302.65625 Z M 419.480469 298.339844 "/>
<path fill-rule="nonzero" fill="rgb(0%, 0%, 0%)" fill-opacity="1" d="M 431.226562 300.496094 C 431.226562 301.816406 430.148438 302.894531 428.832031 302.894531 C 427.511719 302.894531 426.554688 301.816406 426.554688 300.496094 C 426.554688 299.179688 427.511719 298.21875 428.832031 298.21875 C 430.148438 298.21875 431.226562 299.179688 431.226562 300.496094 Z M 431.226562 300.496094 "/>
<path fill-rule="nonzero" fill="rgb(0%, 0%, 0%)" fill-opacity="1" d="M 417.445312 308.167969 C 417.445312 310.566406 415.527344 312.484375 413.128906 312.484375 C 410.730469 312.484375 408.933594 310.566406 408.933594 308.167969 C 408.933594 305.769531 410.730469 303.972656 413.128906 303.972656 C 415.527344 303.972656 417.445312 305.769531 417.445312 308.167969 Z M 417.445312 308.167969 "/>
<path fill-rule="nonzero" fill="rgb(0%, 0%, 0%)" fill-opacity="1" d="M 392.511719 315.839844 L 395.628906 315.839844 L 395.628906 318.957031 L 392.511719 318.957031 Z M 392.511719 315.839844 "/>
<path fill="none" stroke-width="1.92" stroke-linecap="round" stroke-linejoin="round" stroke="rgb(0%, 0%, 0%)" stroke-opacity="1" stroke-miterlimit="10" d="M 523.358939 425.761799 L 527.519937 425.761799 " transform="matrix(0.749144, 0, 0, 0.749144, 0.440349, 0.00000299658)"/>
<path fill="none" stroke-width="1.92" stroke-linecap="round" stroke-linejoin="round" stroke="rgb(0%, 0%, 0%)" stroke-opacity="1" stroke-miterlimit="10" d="M 527.519937 425.761799 L 527.519937 421.600802 " transform="matrix(0.749144, 0, 0, 0.749144, 0.440349, 0.00000299658)"/>
<path fill="none" stroke-width="1.92" stroke-linecap="round" stroke-linejoin="round" stroke="rgb(0%, 0%, 0%)" stroke-opacity="1" stroke-miterlimit="10" d="M 527.519937 421.600802 L 523.358939 421.600802 " transform="matrix(0.749144, 0, 0, 0.749144, 0.440349, 0.00000299658)"/>
<path fill="none" stroke-width="1.92" stroke-linecap="round" stroke-linejoin="round" stroke="rgb(0%, 0%, 0%)" stroke-opacity="1" stroke-miterlimit="10" d="M 523.358939 421.600802 L 523.358939 425.761799 " transform="matrix(0.749144, 0, 0, 0.749144, 0.440349, 0.00000299658)"/>
<path fill-rule="nonzero" fill="rgb(0%, 0%, 0%)" fill-opacity="1" d="M 403.539062 317.398438 C 403.539062 318.714844 402.460938 319.792969 401.144531 319.792969 C 399.824219 319.792969 398.867188 318.714844 398.867188 317.398438 C 398.867188 316.078125 399.824219 315.121094 401.144531 315.121094 C 402.460938 315.121094 403.539062 316.078125 403.539062 317.398438 Z M 403.539062 317.398438 "/>
<path fill-rule="nonzero" fill="rgb(0%, 0%, 0%)" fill-opacity="1" d="M 397.425781 297.140625 L 403.058594 297.140625 L 403.058594 302.535156 L 397.425781 302.535156 Z M 397.425781 297.140625 "/>
<path fill="none" stroke-width="7.2" stroke-linecap="round" stroke-linejoin="round" stroke="rgb(0%, 0%, 0%)" stroke-opacity="1" stroke-miterlimit="10" d="M 533.438147 390.560178 L 533.917861 390.560178 " transform="matrix(0.749144, 0, 0, 0.749144, 0.440349, 0.00000299658)"/>
<path fill="none" stroke-width="7.2" stroke-linecap="round" stroke-linejoin="round" stroke="rgb(0%, 0%, 0%)" stroke-opacity="1" stroke-miterlimit="10" d="M 533.438147 380.960684 L 533.917861 380.960684 " transform="matrix(0.749144, 0, 0, 0.749144, 0.440349, 0.00000299658)"/>
<path fill-rule="nonzero" fill="rgb(0%, 0%, 0%)" fill-opacity="1" d="M 390.476562 265.136719 L 393.589844 265.136719 L 393.589844 268.253906 L 390.476562 268.253906 Z M 390.476562 265.136719 "/>
<path fill="none" stroke-width="1.92" stroke-linecap="round" stroke-linejoin="round" stroke="rgb(0%, 0%, 0%)" stroke-opacity="1" stroke-miterlimit="10" d="M 520.642298 358.080413 L 524.798081 358.080413 " transform="matrix(0.749144, 0, 0, 0.749144, 0.440349, 0.00000299658)"/>
<path fill="none" stroke-width="1.92" stroke-linecap="round" stroke-linejoin="round" stroke="rgb(0%, 0%, 0%)" stroke-opacity="1" stroke-miterlimit="10" d="M 524.798081 358.080413 L 524.798081 353.919416 " transform="matrix(0.749144, 0, 0, 0.749144, 0.440349, 0.00000299658)"/>
<path fill="none" stroke-width="1.92" stroke-linecap="round" stroke-linejoin="round" stroke="rgb(0%, 0%, 0%)" stroke-opacity="1" stroke-miterlimit="10" d="M 524.798081 353.919416 L 520.642298 353.919416 " transform="matrix(0.749144, 0, 0, 0.749144, 0.440349, 0.00000299658)"/>
<path fill="none" stroke-width="1.92" stroke-linecap="round" stroke-linejoin="round" stroke="rgb(0%, 0%, 0%)" stroke-opacity="1" stroke-miterlimit="10" d="M 520.642298 353.919416 L 520.642298 358.080413 " transform="matrix(0.749144, 0, 0, 0.749144, 0.440349, 0.00000299658)"/>
<path fill-rule="nonzero" fill="rgb(0%, 0%, 0%)" fill-opacity="1" d="M 401.503906 266.695312 C 401.503906 268.015625 400.421875 269.09375 399.105469 269.09375 C 397.785156 269.09375 396.828125 268.015625 396.828125 266.695312 C 396.828125 265.375 397.785156 264.417969 399.105469 264.417969 C 400.421875 264.417969 401.503906 265.375 401.503906 266.695312 Z M 401.503906 266.695312 "/>
<path fill-rule="nonzero" fill="rgb(0%, 0%, 0%)" fill-opacity="1" d="M 418.28125 273.40625 C 418.28125 275.445312 416.484375 277.242188 414.449219 277.242188 C 412.410156 277.242188 410.730469 275.445312 410.730469 273.40625 C 410.730469 271.371094 412.410156 269.691406 414.449219 269.691406 C 416.484375 269.691406 418.28125 271.371094 418.28125 273.40625 Z M 418.28125 273.40625 "/>
<path fill="none" stroke-width="0.16" stroke-linecap="butt" stroke-linejoin="miter" stroke="rgb(0%, 0%, 0%)" stroke-opacity="1" stroke-miterlimit="10" d="M 513.279731 341.598066 L 609.279885 341.598066 " transform="matrix(0.749144, 0, 0, 0.749144, 0.440349, 0.00000299658)"/>
<path fill="none" stroke-width="0.16" stroke-linecap="butt" stroke-linejoin="miter" stroke="rgb(0%, 0%, 0%)" stroke-opacity="1" stroke-miterlimit="10" d="M 609.279885 341.598066 L 609.279885 437.59822 " transform="matrix(0.749144, 0, 0, 0.749144, 0.440349, 0.00000299658)"/>
<path fill="none" stroke-width="0.16" stroke-linecap="butt" stroke-linejoin="miter" stroke="rgb(0%, 0%, 0%)" stroke-opacity="1" stroke-miterlimit="10" d="M 609.279885 437.59822 L 513.279731 437.59822 " transform="matrix(0.749144, 0, 0, 0.749144, 0.440349, 0.00000299658)"/>
<path fill="none" stroke-width="0.16" stroke-linecap="butt" stroke-linejoin="miter" stroke="rgb(0%, 0%, 0%)" stroke-opacity="1" stroke-miterlimit="10" d="M 513.279731 437.59822 L 513.279731 341.598066 " transform="matrix(0.749144, 0, 0, 0.749144, 0.440349, 0.00000299658)"/>
</svg>
